<?xml version="1.0" standalone="no"?>
<!DOCTYPE svg PUBLIC "-//W3C//DTD SVG 20010904//EN"
 "http://www.w3.org/TR/2001/REC-SVG-20010904/DTD/svg10.dtd">
<svg version="1.0" xmlns="http://www.w3.org/2000/svg"
 width="300.000000pt" height="176.000000pt" viewBox="0 0 300.000000 176.000000"
 preserveAspectRatio="xMidYMid meet">
<metadata>
Created by potrace 1.10, written by Peter Selinger 2001-2011
</metadata>
<g transform="translate(0.000000,176.000000) scale(0.100000,-0.100000)"
fill="#000000" stroke="none">
<path d="M1123 1710 c2 -12 11 -28 20 -35 9 -7 17 -23 16 -36 0 -22 -1 -23 -9
-4 -8 19 -9 19 -9 -2 -1 -13 5 -23 12 -23 9 0 12 -10 10 -32 -3 -25 -2 -30 6
-18 9 13 11 13 11 -1 0 -14 6 -16 35 -9 19 4 35 5 36 1 3 -16 17 48 18 79 0
24 -2 31 -8 21 -13 -20 -20 17 -9 47 6 18 4 22 -13 22 -18 0 -21 -5 -17 -32 3
-18 2 -45 -3 -60 -4 -17 -3 -28 4 -31 6 -2 7 -8 3 -15 -15 -24 -35 -1 -29 34
4 23 2 34 -6 34 -7 0 -10 3 -7 8 5 8 -10 29 -42 56 -22 19 -22 19 -19 -4z"/>
<path d="M1290 1665 c-8 -9 -8 -20 -2 -31 7 -12 6 -22 -4 -32 -21 -20 -17 -42
7 -42 11 0 17 5 14 10 -3 6 -1 10 4 10 6 0 11 7 11 15 0 8 5 15 11 15 5 0 8 4
4 9 -3 5 4 12 15 16 11 3 20 14 20 24 0 22 -62 27 -80 6z"/>
<path d="M1045 1602 c27 -23 53 -42 57 -42 4 0 5 -6 2 -14 -4 -10 2 -12 20 -9
25 5 25 6 10 34 -8 16 -20 29 -26 29 -6 0 -19 7 -28 15 -9 8 -32 18 -51 21
l-34 7 50 -41z"/>
<path d="M1574 1485 c11 -8 23 -15 26 -15 4 0 12 -11 18 -24 30 -65 137 -145
197 -146 19 -1 101 -67 93 -76 -2 -2 -22 2 -44 8 -69 19 -775 -5 -1219 -42
-286 -24 -357 -31 -378 -41 -17 -7 -12 -8 23 -4 302 34 732 61 1165 74 300 10
422 4 471 -22 42 -22 150 -119 259 -232 l90 -93 116 -6 115 -5 -3 40 c-2 22
-12 59 -23 81 -24 51 -27 82 -5 52 8 -10 15 -27 15 -36 0 -9 4 -19 9 -23 15
-8 0 68 -16 83 -7 7 -13 17 -13 22 0 5 -2 15 -5 22 -7 18 35 19 53 1 8 -7 18
-11 23 -8 5 4 9 1 9 -6 0 -7 3 -9 6 -6 4 4 1 14 -6 23 -19 22 4 36 53 30 50
-6 44 14 -7 28 -47 13 -49 26 -7 45 17 8 31 18 31 22 0 13 -51 3 -71 -14 -11
-10 -24 -17 -29 -17 -6 0 -10 -4 -10 -9 0 -10 -51 -22 -63 -14 -4 3 -3 11 4
19 10 12 14 12 20 2 6 -10 18 -3 44 26 19 22 35 41 35 42 0 2 -17 -7 -37 -19
-43 -25 -80 -34 -50 -13 18 14 24 32 7 21 -5 -3 -10 -1 -10 5 0 6 -4 9 -9 5
-5 -3 -12 3 -14 12 -4 14 -5 13 -6 -4 -1 -32 -37 -49 -60 -29 -15 14 -17 14
-17 -3 0 -12 5 -17 14 -13 10 3 13 -1 10 -14 -2 -10 -10 -18 -16 -16 -21 4
-13 -16 9 -23 15 -5 17 -10 9 -20 -12 -15 0 -28 16 -17 6 4 14 15 17 25 4 10
12 17 18 15 12 -4 11 -24 -2 -21 -4 2 -6 -4 -2 -13 4 -11 8 -12 13 -4 4 6 7
-11 6 -39 0 -27 -4 -45 -7 -39 -4 7 -9 6 -13 -1 -4 -6 -5 -15 -2 -20 4 -5 0
-12 -6 -14 -10 -4 -10 -6 0 -6 6 -1 12 -10 12 -20 0 -11 5 -23 11 -27 6 -3 8
-17 4 -31 -3 -15 -2 -22 4 -19 20 13 19 -11 -1 -28 -18 -16 -20 -16 -15 -2 4
9 2 16 -2 16 -5 0 -11 -6 -14 -12 -3 -10 -8 -10 -21 1 -10 8 -36 17 -59 20
l-42 6 21 21 c12 12 27 23 33 25 11 4 23 97 15 111 -7 12 -64 -13 -74 -32 -14
-27 9 -31 39 -8 13 10 26 16 29 13 9 -9 -38 -95 -58 -105 -24 -13 -15 -40 14
-40 11 0 28 -5 36 -10 20 -13 4 -12 -45 1 -26 7 -59 29 -93 62 -45 44 -52 56
-48 79 5 23 -2 33 -47 71 -72 60 -109 85 -139 92 -15 4 -29 13 -32 20 -8 21
-132 106 -163 111 -36 6 -99 48 -113 74 -8 15 1 11 35 -15 26 -19 57 -41 69
-47 20 -10 20 -10 6 7 -13 16 -83 65 -179 127 -32 20 -53 23 -27 3z m967 -324
c-8 -5 -21 -7 -29 -3 -10 3 -13 1 -8 -6 5 -8 -1 -12 -18 -12 -27 0 -35 15 -13
23 23 10 83 7 68 -2z"/>
<path d="M938 1465 c-154 -17 -164 -20 -176 -52 -17 -46 -22 -129 -9 -148 12
-15 26 -15 202 -1 136 11 193 19 203 30 17 17 32 149 19 171 -10 18 -71 18
-239 0z m227 -90 c-3 -35 -12 -68 -18 -73 -7 -6 -52 -12 -102 -15 -66 -4 -78
-4 -45 3 25 5 64 9 86 9 23 1 46 7 52 14 6 7 14 44 18 82 4 39 9 64 12 57 2
-8 1 -42 -3 -77z m-37 66 c21 -13 5 -99 -22 -115 -23 -15 -91 -24 -240 -32
l-99 -6 7 49 c13 92 8 89 195 98 51 2 96 7 99 10 8 8 45 6 60 -4z m-203 -161
c-3 -5 -36 -9 -73 -8 l-67 1 60 7 c33 4 66 7 73 8 7 1 10 -2 7 -8z"/>
<path d="M426 1417 c-76 -43 -101 -146 -49 -207 24 -30 30 -32 72 -27 37 4 52
12 78 42 51 59 61 154 22 201 -17 21 -79 17 -123 -9z m110 -2 c16 -12 16 -14
3 -15 -9 0 -22 -13 -29 -30 -13 -32 -30 -31 -30 1 0 11 -7 19 -16 19 -11 0
-14 -5 -10 -16 3 -9 9 -33 12 -55 4 -21 11 -39 15 -39 5 0 21 25 36 55 15 30
31 55 36 55 14 0 1 -94 -18 -130 -21 -41 -72 -72 -105 -65 -28 7 -62 35 -42
35 6 0 18 15 26 33 l13 32 8 -27 c4 -16 14 -28 22 -28 10 0 13 6 9 16 -3 9 -9
33 -12 55 -4 23 -12 39 -20 39 -8 0 -14 -4 -14 -9 0 -5 -10 -30 -22 -57 -20
-46 -22 -47 -31 -26 -14 31 6 92 40 127 46 45 94 57 129 30z"/>
<path d="M335 1379 c-51 -140 -67 -215 -42 -207 6 3 15 32 20 67 4 34 14 81
22 104 8 23 12 43 10 46 -3 2 -7 -2 -10 -10z"/>
<path d="M1085 1240 c-4 -6 15 -10 49 -10 30 0 58 5 61 10 4 6 -15 10 -49 10
-30 0 -58 -4 -61 -10z"/>
<path d="M1581 1186 c-17 -20 -53 -288 -41 -299 3 -3 112 -8 243 -12 l239 -7
-7 21 c-5 16 -3 20 10 15 9 -4 14 -12 11 -19 -4 -10 17 -13 90 -13 l94 0 -47
52 c-39 43 -49 49 -51 34 -2 -11 2 -26 9 -34 29 -35 -40 -35 -112 0 -30 15
-58 31 -63 36 -5 5 -3 31 4 60 14 56 22 55 43 -5 l14 -40 4 49 c4 48 4 49 -49
95 -89 78 -100 81 -248 81 -99 0 -134 -3 -143 -14z m294 -27 c51 -25 52 -42 7
-84 -37 -35 -39 -40 -24 -52 27 -20 40 -15 47 20 8 34 20 47 45 47 12 0 13 -2
1 -9 -7 -5 -16 -32 -19 -60 -3 -39 -8 -51 -18 -47 -17 7 -18 -18 -1 -31 6 -6
25 -15 41 -20 57 -18 42 -33 -32 -33 l-69 0 -7 31 c-10 50 -7 87 7 92 6 3 2 6
-10 6 -13 1 -23 -5 -24 -11 -4 -51 -6 -75 -7 -86 -1 -9 -9 -11 -22 -7 -11 4
-20 2 -20 -4 0 -6 -11 -11 -25 -11 -16 0 -25 6 -25 16 0 13 -3 14 -15 4 -8 -7
-24 -10 -35 -7 -11 3 -23 1 -26 -4 -13 -22 -34 -6 -44 33 -9 31 -14 38 -21 27
-11 -18 -11 -10 1 76 12 84 26 122 48 129 33 10 220 -2 247 -15z"/>
<path d="M2305 1190 c-4 -6 -11 -8 -16 -5 -5 4 -9 -1 -9 -9 0 -8 16 -20 35
-27 22 -8 35 -20 35 -31 0 -10 5 -18 10 -18 15 0 12 33 -6 58 -8 12 -23 22
-32 22 -15 0 -15 2 -2 10 9 6 10 10 3 10 -6 0 -15 -5 -18 -10z"/>
<path d="M1161 1181 c-33 -6 -35 -8 -52 -81 -10 -41 -21 -110 -25 -153 l-7
-77 149 4 c82 3 156 5 165 6 13 0 18 15 23 63 4 34 14 93 22 130 8 38 14 79
14 93 l0 24 -127 -1 c-71 -1 -143 -4 -162 -8z m249 -33 c-2 -50 -41 -232 -52
-239 -22 -14 -235 -11 -241 4 -10 27 24 209 44 234 15 17 249 18 249 1z"/>
<path d="M928 1173 c-142 -6 -143 -21 -21 -241 35 -63 36 -63 76 -60 l40 3 23
120 c12 66 26 135 29 153 7 31 7 32 -26 30 -19 -1 -73 -4 -121 -5z m104 -53
c-2 -14 -11 -68 -21 -120 l-17 -95 -32 -3 c-19 -2 -32 1 -32 8 0 6 -13 38 -29
71 -17 32 -27 59 -24 59 4 0 -2 6 -12 14 -16 11 -17 19 -9 47 9 33 12 34 69
39 105 9 110 8 107 -20z"/>
<path d="M667 1160 c42 -10 58 -23 73 -61 l13 -31 13 39 c12 34 12 39 -3 51
-9 6 -42 12 -72 11 -49 -1 -52 -2 -24 -9z"/>
<path d="M500 1123 c0 -5 12 -9 26 -9 14 -1 39 -15 56 -30 l30 -29 -15 31
c-11 22 -26 33 -48 38 -41 8 -49 8 -49 -1z"/>
<path d="M786 1120 c-12 -33 -46 -215 -45 -244 1 -20 6 -7 14 34 10 54 13 60
17 35 3 -16 3 -5 1 25 -3 30 -2 52 1 49 3 -3 27 -45 54 -94 26 -49 59 -97 73
-107 28 -21 139 -41 153 -27 5 4 -11 13 -37 19 -26 7 -57 24 -73 41 -15 16
-38 29 -50 29 -13 0 -26 5 -29 10 -3 6 -1 10 4 10 6 0 2 9 -9 20 -36 36 -62
100 -57 139 6 41 -7 87 -17 61z"/>
<path d="M1482 1050 c-7 -47 -12 -98 -11 -115 1 -16 7 15 15 70 8 55 13 107
11 115 -2 8 -8 -23 -15 -70z"/>
<path d="M250 1095 c-14 -17 -35 -21 -25 -5 3 6 4 10 2 10 -2 0 -25 -31 -51
-68 -37 -54 -46 -74 -41 -94 5 -18 2 -27 -9 -31 -9 -4 -16 -18 -16 -33 0 -44
23 -21 36 37 7 30 20 72 29 93 16 38 17 39 35 20 10 -10 35 -59 54 -108 60
-146 91 -199 128 -221 29 -18 54 -20 236 -23 196 -3 202 -3 202 16 0 11 6 23
13 25 6 3 -56 6 -139 6 -140 1 -154 3 -185 24 -19 12 -45 44 -59 70 -14 26
-27 47 -30 47 -15 -1 -31 -20 -33 -38 -2 -34 -47 -31 -47 3 0 20 -5 25 -27 26
-16 0 -22 3 -15 6 6 2 12 13 12 23 0 10 6 22 12 26 17 11 48 13 43 3 -10 -16
8 -39 30 -39 l23 0 -34 79 c-19 43 -34 84 -34 89 0 18 -51 52 -77 52 -14 0
-21 4 -18 10 9 15 -1 12 -15 -5z m40 -39 c0 -7 -7 -19 -15 -26 -20 -16 -38 -1
-29 23 7 20 44 23 44 3z m40 -39 c0 -8 -9 -22 -19 -31 -18 -17 -20 -17 -30 2
-7 13 -7 22 1 30 16 16 48 15 48 -1z m8 -77 c-26 -36 -34 -37 -40 -6 -4 21 -1
26 21 29 14 2 30 5 34 6 4 0 -2 -12 -15 -29z m112 -180 c0 -23 -26 -44 -45
-36 -21 8 -19 53 2 65 21 11 43 -3 43 -29z m100 -57 c55 -10 54 -10 -35 -10
-83 -1 -87 0 -60 12 17 7 24 14 17 14 -7 1 -10 6 -6 13 5 8 10 7 18 -4 7 -9
36 -20 66 -25z"/>
<path d="M355 1100 c-4 -6 9 -10 32 -10 44 -1 79 -26 89 -64 3 -14 10 -26 15
-26 12 0 12 1 -6 43 -8 20 -25 43 -37 51 -25 18 -83 21 -93 6z"/>
<path d="M2040 1012 c0 -33 3 -40 15 -35 9 3 25 -3 35 -12 19 -17 20 -17 20 1
0 11 -16 35 -35 54 l-35 34 0 -42z"/>
<path d="M2170 1041 c0 -5 15 -20 33 -32 17 -13 38 -31 45 -41 7 -10 19 -18
27 -18 32 0 23 22 -26 60 -49 38 -79 50 -79 31z"/>
<path d="M593 1025 c10 -9 17 -20 17 -25 0 -5 9 -14 20 -20 18 -10 19 -9 5 22
-8 21 -21 34 -36 36 -21 4 -21 3 -6 -13z"/>
<path d="M2510 1015 c0 -8 4 -15 10 -15 5 0 18 -17 28 -37 20 -44 49 -52 44
-13 -7 46 -82 106 -82 65z"/>
<path d="M186 949 c-9 -29 -16 -62 -15 -73 0 -12 9 10 19 49 22 82 18 101 -4
24z"/>
<path d="M478 957 c-34 -35 -35 -40 -4 -25 32 14 52 5 58 -26 4 -21 1 -26 -21
-29 -19 -3 -16 -4 12 -6 20 0 37 2 37 7 -1 4 -13 30 -28 57 l-27 50 -27 -28z"/>
<path d="M653 924 c-9 -9 -9 -15 -2 -19 6 -4 8 -13 5 -21 -4 -10 2 -14 19 -14
30 0 30 1 7 38 -14 24 -19 27 -29 16z"/>
<path d="M560 855 c0 -3 12 -27 28 -55 18 -33 33 -50 47 -50 18 0 18 1 -3 16
-12 8 -31 33 -42 55 -18 35 -30 48 -30 34z"/>
<path d="M116 817 c-9 -36 -20 -203 -13 -196 8 7 31 209 24 215 -2 3 -7 -6
-11 -19z"/>
<path d="M750 823 c0 -13 -4 -23 -10 -23 -5 0 -9 -12 -9 -27 1 -22 3 -23 6 -7
2 12 13 25 24 30 18 8 18 11 5 29 -15 20 -15 20 -16 -2z"/>
<path d="M1076 832 c-8 -13 -10 -111 -2 -119 20 -20 33 -9 34 30 1 22 3 41 4
41 2 1 85 0 184 -2 l182 -3 4 -34 c3 -31 1 -35 -18 -35 -13 0 -26 -5 -30 -12
-4 -7 -3 -8 4 -4 7 4 12 1 12 -6 0 -8 -8 -14 -19 -14 -12 0 -17 6 -13 18 3 14
-2 18 -22 18 -19 0 -26 -5 -26 -20 0 -11 -7 -20 -15 -20 -18 0 -19 12 -3 28 9
9 9 12 0 12 -7 0 -17 -10 -22 -22 -7 -19 -9 -19 -9 -5 -1 21 -21 13 -21 -9 0
-10 12 -14 40 -14 33 0 40 3 40 20 0 11 4 20 10 20 5 0 7 -7 4 -15 -4 -8 -2
-15 2 -16 5 0 20 -2 34 -4 14 -2 115 -6 225 -10 180 -7 204 -6 234 10 32 16
58 16 390 6 196 -6 374 -14 396 -17 l40 -6 -3 -82 c-3 -70 -1 -84 13 -89 9 -4
14 -3 10 3 -4 6 14 10 44 10 31 0 51 -4 51 -11 0 -8 4 -8 13 -1 7 5 21 6 32 1
18 -7 18 -8 -5 -9 l-25 -1 24 -10 c42 -17 82 -51 77 -65 -3 -8 0 -14 6 -14 6
0 8 -3 5 -7 -4 -3 -2 -12 3 -18 7 -9 6 -16 -5 -25 -8 -7 -15 -18 -15 -24 0
-37 -243 -64 -285 -32 -11 8 -36 15 -55 15 -36 -1 -34 -3 12 -13 14 -3 28 -14
30 -23 3 -16 16 -17 119 -15 112 4 117 3 133 -19 l16 -23 0 32 c0 26 5 33 26
38 30 8 44 39 44 99 0 25 5 45 13 48 10 4 10 6 0 6 -7 1 -13 8 -13 16 0 11
-11 15 -40 15 -32 0 -40 4 -40 19 0 21 -35 31 -111 31 -48 0 -49 1 -49 31 l0
30 73 -5 c47 -3 62 -2 42 3 -28 8 -28 9 -5 10 28 1 53 -11 50 -25 -1 -5 3 -10
8 -12 13 -4 25 30 14 37 -5 3 -15 30 -22 60 -16 67 -36 88 -93 96 -65 10 -81
4 -85 -29 -3 -27 -6 -28 -40 -23 -20 4 -217 11 -437 17 -661 18 -750 21 -732
32 9 5 17 20 17 34 l0 24 313 -5 c171 -3 447 -10 611 -16 272 -9 318 -8 305 5
-7 8 -579 25 -911 28 l-318 3 0 23 c0 33 -44 27 -48 -6 -3 -16 -8 -22 -19 -18
-8 3 -91 6 -184 6 -162 0 -169 1 -169 20 0 20 -24 28 -34 12z m1754 -148 c0
-8 4 -14 10 -14 12 0 33 -38 36 -67 2 -19 -4 -22 -58 -28 -33 -4 -63 -3 -68 1
-13 14 -21 94 -11 113 12 21 91 17 91 -5z"/>
<path d="M2475 820 c125 -22 244 -34 200 -20 -33 11 -243 40 -278 39 -12 0 23
-9 78 -19z"/>
<path d="M2730 793 c0 -5 17 -15 38 -22 20 -8 49 -22 65 -33 15 -11 27 -15 27
-9 0 6 -17 22 -37 35 -42 27 -93 43 -93 29z"/>
<path d="M777 769 c6 -6 30 -12 54 -14 24 -3 35 -2 24 1 -79 21 -88 23 -78 13z"/>
<path d="M918 753 c17 -2 47 -2 65 0 17 2 3 4 -33 4 -36 0 -50 -2 -32 -4z"/>
<path d="M1173 753 c20 -2 54 -2 75 0 20 2 3 4 -38 4 -41 0 -58 -2 -37 -4z"/>
<path d="M673 738 c7 -4 93 -7 192 -6 197 2 173 6 -57 10 -80 2 -141 0 -135
-4z"/>
<path d="M1643 743 c43 -2 110 -2 150 0 40 1 5 3 -78 3 -82 0 -115 -2 -72 -3z"/>
<path d="M1165 730 c22 -4 34 -8 28 -9 -7 0 -15 -12 -19 -25 -6 -26 -34 -26
-34 1 0 8 4 12 9 8 5 -3 12 -1 16 5 4 6 -5 10 -19 10 -29 0 -31 -3 -15 -32 10
-18 9 -20 -7 -14 -30 12 -36 12 -41 0 -3 -9 26 -12 102 -12 64 -1 105 3 105 9
0 6 -5 7 -11 4 -7 -5 -9 4 -7 26 l3 34 -75 1 c-59 1 -67 0 -35 -6z m92 -37 c0
-18 -24 -24 -31 -7 -3 8 -11 14 -18 13 -10 0 -10 -2 0 -6 17 -7 15 -20 -3 -20
-8 0 -15 8 -15 18 0 13 8 17 33 16 20 0 34 -6 34 -14z"/>
<path d="M2153 733 c26 -2 67 -2 90 0 23 2 2 3 -48 3 -49 0 -68 -1 -42 -3z"/>
<path d="M204 719 c-11 -5 8 -8 50 -8 38 -1 67 1 65 3 -8 9 -96 12 -115 5z"/>
<path d="M1294 721 c4 -5 3 -11 -1 -14 -5 -2 -1 -2 7 1 8 3 49 8 90 12 l75 7
-88 1 c-51 1 -86 -2 -83 -7z"/>
<path d="M1603 723 c32 -2 81 -2 110 0 29 2 3 3 -58 3 -60 0 -84 -1 -52 -3z"/>
<path d="M2463 723 c20 -2 54 -2 75 0 20 2 3 4 -38 4 -41 0 -58 -2 -37 -4z"/>
<path d="M865 711 c3 -6 -1 -11 -9 -11 -9 0 -16 -5 -16 -11 0 -7 11 -4 26 6
15 9 23 12 20 6 -4 -6 0 -11 8 -11 9 0 16 4 16 8 0 5 7 9 15 9 24 0 17 -25 -7
-30 -13 -2 -4 -5 20 -6 25 0 42 3 42 10 0 6 -7 9 -15 5 -9 -3 -15 1 -15 11 0
12 7 14 35 10 19 -3 35 -2 35 2 0 5 -36 9 -81 10 -55 1 -79 -1 -74 -8z"/>
<path d="M1030 709 c0 -5 5 -7 11 -3 8 4 9 0 4 -15 -5 -15 -2 -21 9 -21 17 0
20 9 10 34 -7 18 -34 22 -34 5z"/>
<path d="M2205 705 c204 -7 399 -13 435 -13 170 2 -151 16 -465 21 l-340 6
370 -14z"/>
<path d="M340 652 c0 -15 -5 -33 -12 -40 -20 -20 -1 -13 39 14 35 24 36 25 9
18 -26 -6 -28 -5 -21 15 4 12 2 21 -4 21 -6 0 -11 -13 -11 -28z"/>
<path d="M1020 500 c0 -84 3 -151 6 -148 7 7 6 290 -1 297 -3 2 -5 -65 -5
-149z"/>
<path d="M4 618 c2 -18 9 -23 30 -22 14 1 26 -3 26 -7 0 -5 -6 -9 -12 -9 -10
0 -10 -2 0 -8 19 -12 -2 -60 -30 -72 l-23 -9 25 -1 25 -2 -25 -8 -25 -8 26 -1
c14 -1 29 2 33 7 4 4 12 7 17 7 5 0 9 3 9 8 0 4 0 39 0 77 l0 70 -40 0 c-36 0
-40 -2 -36 -22z"/>
<path d="M396 616 c-22 -8 -49 -27 -62 -43 -26 -33 -54 -116 -54 -161 0 -35
-5 -37 -47 -20 -15 6 -48 12 -73 12 -45 1 -45 1 -45 38 -1 20 -4 40 -8 44 -4
4 -7 3 -7 -3 0 -6 -11 -14 -25 -17 -19 -5 -25 -13 -25 -35 0 -25 -3 -28 -25
-23 -18 3 -25 0 -25 -12 0 -13 13 -16 78 -17 80 0 157 -6 205 -14 19 -3 27 -1
25 8 -4 18 31 103 48 117 16 14 20 35 4 25 -24 -15 -7 26 21 49 35 30 102 35
148 12 46 -24 101 -110 101 -159 0 -13 9 -40 20 -62 11 -22 20 -51 20 -65 1
-23 2 -23 18 10 15 30 22 35 47 32 17 -1 60 -4 98 -6 45 -2 74 -9 86 -20 15
-13 26 -15 58 -8 28 6 49 6 69 -3 16 -7 38 -9 49 -5 11 4 43 6 70 3 28 -2 155
-8 283 -12 178 -5 235 -10 242 -20 6 -11 15 -11 38 -3 22 8 32 7 34 0 3 -8 13
-8 36 0 19 7 34 7 37 1 11 -16 -46 -30 -104 -24 -31 3 -150 10 -266 15 -115 6
-250 13 -300 16 -99 6 -102 -11 -4 -21 30 -4 68 -8 84 -11 104 -15 543 -25
551 -13 3 5 14 9 25 9 10 0 19 4 19 8 0 5 40 8 89 8 71 0 94 3 109 17 24 22
31 22 26 -1 -3 -9 -1 -28 4 -42 l10 -25 7 29 c5 20 3 37 -9 56 -21 36 -20 48
5 115 41 109 112 157 234 158 89 0 141 -15 203 -58 27 -18 51 -32 53 -31 2 2
29 0 59 -4 61 -8 91 -3 68 11 -7 5 -40 9 -74 9 -51 0 -64 4 -84 24 -32 35
-103 66 -175 78 -82 14 -162 -3 -218 -46 -52 -40 -103 -134 -112 -209 -7 -53
-8 -54 -38 -53 -18 1 -35 6 -39 11 -5 7 -8 6 -8 -1 0 -6 -16 -9 -37 -7 -67 5
-193 12 -413 23 -511 26 -577 30 -620 38 l-45 9 40 3 c22 1 33 4 25 6 -9 3
-62 1 -118 -4 -69 -5 -106 -4 -111 3 -4 5 -13 37 -20 70 -32 151 -141 233
-255 191z"/>
<path d="M2195 619 c-5 -5 -29 -24 -53 -41 -24 -17 -40 -33 -38 -36 3 -3 14 3
25 12 36 33 118 56 199 57 52 0 71 3 57 9 -28 12 -178 11 -190 -1z"/>
<path d="M717 575 c2 -16 5 -42 6 -57 1 -16 8 -28 15 -28 17 0 15 45 -2 63 -8
7 -16 22 -19 33 -2 10 -2 6 0 -11z"/>
<path d="M1977 583 c-4 -3 -32 -7 -62 -9 -31 -1 -62 -8 -70 -14 -11 -9 -15 -9
-15 -1 0 6 -7 11 -15 11 -10 0 -15 -9 -14 -27 2 -24 2 -25 6 -5 5 27 23 19 24
-11 0 -19 2 -18 11 6 14 38 52 34 56 -6 4 -31 0 -33 -75 -42 -44 -5 -53 -3
-53 10 0 9 -9 15 -26 15 -14 0 -23 -4 -19 -10 3 -5 13 -6 22 -3 11 4 14 3 9
-5 -10 -17 -31 -15 -47 4 -11 14 -13 14 -22 -2 -9 -15 -11 -15 -23 7 -7 13
-13 33 -13 44 0 18 0 19 10 3 12 -22 29 -23 29 -3 0 8 5 15 10 15 6 0 10 -5
10 -11 0 -5 5 -7 10 -4 6 4 18 1 26 -6 13 -10 17 -10 24 1 6 10 9 7 12 -10 1
-13 9 -25 16 -26 7 -1 8 0 2 3 -5 2 -10 16 -10 30 0 21 -4 24 -21 20 -12 -3
-32 -1 -45 5 -17 8 -27 8 -39 -2 -10 -8 -15 -9 -15 -1 0 6 -9 11 -21 11 -14 0
-19 -5 -16 -14 3 -8 -1 -17 -9 -20 -8 -3 -14 -11 -14 -18 0 -9 3 -9 10 2 11
17 20 9 38 -32 7 -18 8 -28 1 -28 -5 0 -12 7 -16 16 -6 15 -7 15 -19 0 -10
-14 -17 -15 -32 -7 -13 7 -22 7 -30 -1 -12 -12 -17 -1 -13 29 1 6 -3 14 -9 18
-6 4 -10 -7 -11 -27 l-1 -33 -7 30 c-10 40 -6 45 35 45 30 0 34 -3 34 -25 0
-14 5 -25 10 -25 12 0 12 2 0 34 -8 23 -15 26 -55 26 -34 0 -47 -4 -52 -17 -4
-9 -1 -19 5 -21 7 -2 12 -14 12 -26 0 -21 5 -23 60 -23 33 0 60 4 60 9 0 5 7
2 16 -6 17 -17 34 -13 34 8 0 22 94 14 98 -8 3 -13 13 -16 48 -15 24 2 44 6
44 11 0 5 -18 5 -40 2 -39 -6 -57 7 -25 20 8 3 15 0 15 -7 0 -8 3 -8 9 2 6 9
22 12 50 9 22 -2 41 -1 41 2 0 3 16 7 35 8 36 3 48 -11 19 -22 -9 -3 -34 -7
-57 -7 -33 -2 -36 -3 -13 -6 50 -8 96 5 96 27 0 11 4 20 9 20 14 0 22 31 11
45 -5 6 -7 15 -3 19 4 4 1 11 -7 16 -18 12 -25 12 -33 3z m-22 -43 c1 -19 5
-24 20 -22 26 5 33 12 12 12 -10 0 -17 8 -17 20 0 12 7 20 17 20 9 0 13 -3 10
-7 -4 -3 -2 -12 4 -19 22 -26 2 -44 -46 -42 -44 1 -45 2 -45 35 0 30 3 34 23
31 16 -2 22 -10 22 -28z"/>
<path d="M2075 553 c-4 -16 -13 -43 -21 -61 -20 -47 -17 -52 8 -12 11 19 22
50 24 68 4 39 -3 42 -11 5z"/>
<path d="M2943 545 c-7 -8 -13 -22 -13 -31 0 -13 4 -11 21 7 11 13 18 18 14
12 -3 -8 0 -13 9 -13 18 0 14 34 -5 37 -8 2 -20 -4 -26 -12z"/>
<path d="M1415 530 c-3 -5 1 -10 9 -10 16 0 17 -24 3 -47 -5 -8 -4 -13 2 -13
6 0 11 -16 11 -35 0 -19 4 -35 9 -35 13 0 23 32 12 39 -5 4 -11 30 -12 59 -2
49 -18 68 -34 42z"/>
<path d="M437 504 c-2 -3 -15 -7 -28 -9 -72 -14 -108 -164 -61 -252 11 -21 10
-22 -45 -29 -68 -8 -51 -19 48 -29 35 -4 66 -8 69 -10 4 -2 94 -11 201 -20
107 -8 271 -22 364 -30 94 -8 211 -17 260 -20 50 -3 108 -8 130 -10 22 -2 111
-9 197 -16 86 -7 155 -15 153 -18 -1 -4 36 -7 84 -8 47 0 202 -10 345 -22 142
-12 264 -21 270 -21 25 1 -22 18 -67 25 -27 3 -58 8 -69 10 -11 3 -82 7 -157
11 -75 3 -148 7 -163 8 -16 0 -28 4 -28 7 0 3 -12 6 -27 6 -53 -1 -254 16
-333 28 -25 3 -74 8 -110 9 -36 2 -73 7 -82 11 -12 4 -18 3 -18 -5 0 -8 -9
-10 -27 -5 -32 8 -99 15 -178 20 -33 2 -60 4 -60 5 0 0 -30 2 -67 3 -36 1 -65
4 -63 7 2 3 -18 5 -43 5 -26 0 -78 3 -117 7 -38 5 -121 13 -183 20 -88 9 -112
14 -108 25 4 10 1 11 -14 3 -33 -17 -96 -12 -121 11 -21 18 -21 20 -4 14 11
-4 42 -10 68 -13 45 -4 49 -3 87 37 31 32 39 50 42 83 4 56 -14 108 -44 131
-24 18 -93 39 -101 31z m87 -46 c14 -13 31 -44 37 -69 11 -40 10 -50 -7 -84
-28 -57 -65 -81 -106 -69 -67 20 -101 126 -61 194 31 52 95 65 137 28z"/>
<path d="M517 413 c6 -16 5 -17 -12 -3 -10 8 -16 10 -12 3 4 -6 2 -15 -4 -19
-6 -3 -15 -1 -19 5 -5 9 -11 7 -21 -5 -8 -10 -9 -15 -2 -11 18 11 42 -3 40
-24 -1 -20 -23 -33 -39 -22 -7 4 -8 1 -4 -6 15 -23 50 -30 69 -13 22 19 22 31
0 48 -10 7 -14 16 -10 20 4 5 13 2 18 -6 9 -13 10 -12 6 2 -3 9 -1 18 5 20 6
2 8 10 4 16 -11 19 -26 14 -19 -5z"/>
<path d="M390 365 c0 -8 9 -15 20 -15 11 0 20 7 20 15 0 8 -9 15 -20 15 -11 0
-20 -7 -20 -15z"/>
<path d="M142 471 c-14 -8 57 -22 107 -20 22 1 20 3 -14 14 -48 16 -75 18 -93
6z"/>
<path d="M721 423 c0 -35 2 -63 7 -63 4 0 6 21 4 48 -5 75 -10 82 -11 15z"/>
<path d="M2243 430 c-73 -17 -122 -82 -123 -161 0 -71 49 -151 103 -168 76
-24 103 -22 145 9 40 29 72 75 72 102 0 7 -9 -6 -20 -30 -49 -108 -210 -101
-260 11 -46 101 -10 191 88 217 39 10 49 9 90 -12 55 -27 78 -57 98 -124 l14
-49 -5 45 c-7 54 -35 101 -83 137 -40 31 -68 36 -119 23z"/>
<path d="M2290 376 c0 -7 7 -19 15 -26 12 -10 16 -9 21 3 3 9 3 21 -1 27 -9
15 -35 12 -35 -4z"/>
<path d="M2214 368 c-9 -14 27 -41 38 -30 12 12 -1 42 -17 42 -8 0 -17 -5 -21
-12z"/>
<path d="M125 350 c-3 -5 -34 -10 -67 -10 -64 0 -74 -10 -16 -15 38 -4 98 12
98 26 0 12 -7 12 -15 -1z"/>
<path d="M140 329 c-11 -8 -4 -9 28 -5 38 6 42 4 42 -15 0 -20 4 -21 48 -14
54 8 65 15 53 33 -6 11 -17 11 -47 3 -25 -7 -42 -7 -48 -1 -13 13 -57 12 -76
-1z"/>
<path d="M2252 320 c-11 -8 -22 -25 -25 -37 -7 -30 26 -79 58 -87 30 -8 54 2
35 14 -9 5 -9 9 -1 14 6 4 11 2 11 -3 0 -6 7 -11 15 -11 10 0 15 10 15 30 0
24 4 30 21 30 17 0 20 5 17 32 -3 35 -38 55 -38 22 0 -9 8 -23 18 -31 16 -13
16 -14 -3 -11 -11 2 -24 13 -30 25 -12 27 -66 35 -93 13z m24 -15 c-7 -20 11
-19 22 1 5 9 14 14 21 10 17 -11 13 -26 -5 -19 -14 5 -15 3 -5 -15 13 -24 -2
-68 -19 -57 -4 3 -10 0 -12 -6 -2 -7 -12 0 -22 15 -11 17 -15 34 -10 44 7 16
9 23 13 37 0 3 6 5 12 5 6 0 9 -7 5 -15z"/>
<path d="M2170 290 c0 -23 35 -28 43 -6 7 18 -1 26 -25 26 -11 0 -18 -7 -18
-20z"/>
<path d="M760 284 c-107 -19 -87 -30 51 -27 107 3 129 6 117 18 -8 8 -137 15
-168 9z"/>
<path d="M2373 244 c-8 -21 13 -42 28 -27 13 13 5 43 -11 43 -6 0 -13 -7 -17
-16z"/>
<path d="M2558 238 c-20 -24 -24 -48 -8 -48 6 0 10 9 10 19 0 14 8 21 25 23
31 4 38 22 10 26 -11 1 -28 -8 -37 -20z"/>
<path d="M2187 223 c-14 -13 -6 -33 12 -33 16 0 31 18 31 36 0 7 -36 5 -43 -3z"/>
<path d="M2467 208 c-2 -13 -8 -32 -12 -43 -6 -15 -5 -17 4 -9 15 13 32 74 21
74 -4 0 -10 -10 -13 -22z"/>
<path d="M1870 213 c0 -5 17 -8 38 -9 20 0 56 -4 80 -8 50 -9 86 -1 62 14 -18
11 -180 13 -180 3z"/>
<path d="M2323 174 c-3 -8 -1 -20 5 -26 15 -15 43 8 35 28 -7 19 -32 18 -40
-2z"/>
<path d="M2566 181 c-4 -6 -1 -13 6 -16 14 -4 126 -13 287 -21 57 -3 106 -5
110 -6 17 -2 31 3 31 11 0 12 -51 18 -196 26 -61 3 -138 8 -171 11 -40 4 -63
3 -67 -5z"/>
<path d="M2247 174 c-16 -16 -6 -35 16 -32 12 2 22 10 22 18 0 16 -26 25 -38
14z"/>
<path d="M321 143 c10 -12 10 -15 2 -9 -7 4 -13 2 -13 -3 0 -14 27 -14 35 -1
9 15 25 12 25 -5 0 -8 -8 -15 -17 -15 -10 0 -35 -3 -56 -6 -33 -6 -37 -5 -31
12 5 18 4 17 -11 -1 -13 -17 -26 -20 -83 -17 -36 1 -69 6 -72 10 -4 6 -47 7
-92 3 -5 -1 -8 -6 -8 -12 0 -5 4 -8 9 -4 5 3 12 1 16 -5 3 -5 -1 -10 -9 -10
-25 0 -19 -29 7 -34 12 -3 106 -12 209 -20 196 -17 226 -14 249 23 11 17 15
18 35 5 12 -8 26 -14 30 -13 30 5 64 -2 58 -13 -4 -6 -3 -8 4 -4 6 3 13 2 17
-3 4 -7 15 -7 31 -1 30 12 67 13 60 2 -6 -10 36 -8 53 2 7 4 25 2 41 -4 16 -7
37 -10 45 -6 9 3 14 2 11 -2 -3 -5 148 -9 335 -11 187 -1 339 2 339 6 0 5
-104 10 -232 11 -128 1 -266 6 -308 11 -41 6 -136 13 -210 16 -74 4 -171 12
-215 19 -90 13 -119 11 -111 -10 11 -30 -33 -32 -169 -9 -11 2 -27 4 -36 4 -9
1 -19 8 -23 16 -5 13 7 14 82 11 48 -3 75 -2 60 0 -46 9 -31 24 22 24 28 0 50
5 50 10 0 7 6 7 19 0 11 -5 35 -10 53 -9 31 1 30 2 -12 11 -25 5 -53 17 -62
25 -9 8 -43 16 -78 19 -57 3 -61 2 -49 -13z"/>
<path d="M678 119 c-18 -6 -15 -7 15 -8 22 -1 37 -6 37 -13 0 -10 2 -10 8 -2
4 7 18 14 32 16 17 3 9 6 -22 9 -26 2 -57 1 -70 -2z"/>
</g>
</svg>
